Coordinates
version=1
nRows=16
nColumns=22
inDegrees=yes

Units are S.I. units (second, meters, Newtons, ...)
If the header above contains a line with 'inDegrees', this indicates whether rotational values are in degrees (yes) or radians (no).

endheader
time	pelvis_tilt	pelvis_list	pelvis_rotation	pelvis_tx	pelvis_ty	pelvis_tz	hip_flexion_r	hip_adduction_r	hip_rotation_r	knee_angle_r	ankle_angle_r	subtalar_angle_r	hip_flexion_l	hip_adduction_l	hip_rotation_l	knee_angle_l	ankle_angle_l	subtalar_angle_l	lumbar_extension	lumbar_bending	lumbar_rotation
      2.88000000	     11.82962944	     -4.84259752	     34.51687277	      0.34125438	      0.91607996	      0.41353959	     15.20061369	      7.08409207	     -4.17846616	    -24.87431674	      1.71590113	      5.37327822	    -10.40602566	     -7.47334220	      7.58949118	    -50.41433873	      1.25025780	     -9.63687786	    -13.14740778	     10.49322078	    -12.44224264
      2.89000000	     12.00896527	     -4.97169372	     35.06330716	      0.35091221	      0.91726167	      0.40940300	     14.49747299	      7.38653661	     -4.65421980	    -25.03754227	      2.56173312	      5.17497136	     -8.76615541	     -7.81566980	      7.76858971	    -53.26756935	     -1.11914560	     -9.10502537	    -13.18586861	     10.75367041	    -12.14176186
      2.90000000	     12.16798336	     -5.08151506	     35.65598050	      0.36019345	      0.91840310	      0.40528435	     13.75403133	      7.65439390	     -5.20098207	    -25.06047660	      3.33535048	      4.98436671	     -6.99466295	     -8.08934948	      8.05920653	    -56.10095077	     -2.97913358	     -8.74720108	    -13.24882355	     10.97695804	    -11.82042282
      2.91000000	     12.28231617	     -5.17749110	     36.23004865	      0.36915534	      0.91944717	      0.40127985	     13.04229587	      7.89712777	     -5.73047996	    -25.03813007	      4.08564845	      4.71426271	     -5.10032119	     -8.29616450	      8.33699640	    -58.86349800	     -4.26349686	     -8.40198301	    -13.31569981	     11.14597549	    -11.45575469
      2.92000000	     12.38811514	     -5.23712843	     36.82264924	      0.37782942	      0.92053166	      0.39728441	     12.26398850	      8.12097388	     -6.22768603	    -24.87691915	      4.75714954	      4.45911102	     -3.16649669	     -8.42531764	      8.66195019	    -61.47643165	     -4.93145976	     -8.28429947	    -13.41870990	     11.26541472	    -11.06702463
      2.93000000	     12.45525010	     -5.26566004	     37.38766845	      0.38626825	      0.92160499	      0.39335457	     11.49640869	      8.31190811	     -6.68161329	    -24.67496948	      5.37519619	      4.16442265	     -1.18671588	     -8.48148724	      8.93636038	    -63.90476853	     -4.99352024	     -8.37350659	    -13.53151678	     11.31494742	    -10.62727825
      2.94000000	     12.48355039	     -5.26071731	     37.93650637	      0.39450148	      0.92269964	      0.38943556	     10.72858960	      8.46655579	     -7.08260259	    -24.42233093	      5.91864161	      3.82432919	      0.81708430	     -8.46863936	      9.15560788	    -66.10468895	     -4.48408271	     -8.78684992	    -13.64119370	     11.29712129	    -10.16310759
      2.95000000	     12.49473967	     -5.19551726	     38.43470589	      0.40261087	      0.92389942	      0.38553045	      9.92013609	      8.58603384	     -7.37145733	    -24.13069853	      6.47749349	      3.41397443	      2.77041687	     -8.39527360	      9.24885202	    -68.02167507	     -3.46375741	     -9.76097140	    -13.78575371	     11.19560845	     -9.64705560
      2.96000000	     12.49430946	     -5.08781154	     38.93656780	      0.41058876	      0.92521337	      0.38152740	      9.05049113	      8.67656986	     -7.61215042	    -23.74653357	      6.90393272	      3.10155198	      4.67198833	     -8.27459596	      9.28729989	    -69.63467882	     -1.97958755	    -11.00290362	    -13.93404928	     11.04725137	     -9.16846649
      2.97000000	     12.48525504	     -4.93448425	     39.40766359	      0.41849485	      0.92664066	      0.37745023	      8.13025355	      8.73729943	     -7.79487101	    -23.31224321	      7.29784638	      2.81358610	      6.49654953	     -8.12877256	      9.20045935	    -70.92284697	     -0.17556300	    -12.59900974	    -14.09326023	     10.84504302	     -8.67575322
      2.98000000	     12.46727274	     -4.73080771	     39.84281059	      0.42636891	      0.92818902	      0.37327118	      7.14468892	      8.76188533	     -7.92398646	    -22.81411976	      7.67430656	      2.55370403	      8.22018669	     -7.96154588	      8.97647432	    -71.86604055	      1.85496621	    -14.49381341	    -14.25818659	     10.58723584	     -8.18230578
      2.99000000	     12.42978634	     -4.44657693	     40.23028740	      0.43420300	      0.92986589	      0.36897953	      6.09223140	      8.70952934	     -8.01257964	    -22.27998139	      8.02214998	      2.32496223	      9.80985608	     -7.73431607	      8.61154541	    -72.44922369	      4.01316282	    -16.61366126	    -14.44495704	     10.24073660	     -7.69934969
      3.00000000	     12.38794953	     -4.13199537	     40.60448167	      0.44198762	      0.93159499	      0.36455956	      4.98396807	      8.63351743	     -8.08418662	    -21.68203641	      8.34593930	      2.13381628	     11.30195498	     -7.50416358	      8.14637039	    -72.69962468	      6.18374074	    -18.80971492	    -14.62479313	      9.87041699	     -7.25283263
      3.01000000	     12.33090096	     -3.77156895	     40.95585336	      0.44972886	      0.93335940	      0.36001019	      3.82252599	      8.50572670	     -8.16889753	    -21.03299350	      8.64289347	      1.97813824	     12.67708032	     -7.24843253	      7.57503956	    -72.60884998	      8.28319108	    -20.99421547	    -14.80293205	      9.45357949	     -6.83979551
      3.02000000	     12.27239616	     -3.38597098	     41.29408658	      0.45742429	      0.93510441	      0.35533948	      2.61229292	      8.35313381	     -8.28089908	    -20.33263382	      8.91936549	      1.85548378	     13.94256812	     -6.99822190	      6.91215380	    -72.20008433	     10.25067380	    -23.06267871	    -14.97872987	      9.02358106	     -6.46651345
      3.03000000	     12.21280791	     -2.98521015	     41.62284877	      0.46507564	      0.93678746	      0.35055685	      1.36207715	      8.18606102	     -8.42485968	    -19.58302054	      9.17491076	      1.76171994	     15.10184068	     -6.75747343	      6.17209436	    -71.48477336	     12.03294061	    -24.93047301	    -15.14862560	      8.58842551	     -6.13248995
